<svg id="visual" viewBox="0 0 960 540" width="960" height="540" xmlns="http://www.w3.org/2000/svg" xmlns:xlink="http://www.w3.org/1999/xlink" version="1.1"><g stroke-width="1" stroke-linejoin="bevel"><path d="M464 241L486 308L548 282Z" fill="#0b77ab" stroke="#0b77ab"></path><path d="M486 308L504 333L548 282Z" fill="#0784be" stroke="#0784be"></path><path d="M548 282L575 207L464 241Z" fill="#000e18" stroke="#000e18"></path><path d="M575 207L556 180L464 241Z" fill="#0e6a99" stroke="#0e6a99"></path><path d="M575 207L567 184L556 180Z" fill="#0f3a54" stroke="#0f3a54"></path><path d="M504 333L599 312L548 282Z" fill="#091a26" stroke="#091a26"></path><path d="M548 282L599 312L575 207Z" fill="#104664" stroke="#104664"></path><path d="M657 276L588 200L575 207Z" fill="#0b77ab" stroke="#0b77ab"></path><path d="M575 207L588 200L567 184Z" fill="#0f3a54" stroke="#0f3a54"></path><path d="M464 241L427 347L486 308Z" fill="#0f3a54" stroke="#0f3a54"></path><path d="M486 308L427 347L504 333Z" fill="#0b77ab" stroke="#0b77ab"></path><path d="M533 143L439 167L464 241Z" fill="#104664" stroke="#104664"></path><path d="M464 241L366 302L427 347Z" fill="#0e6a99" stroke="#0e6a99"></path><path d="M569 116L533 143L556 180Z" fill="#0e6a99" stroke="#0e6a99"></path><path d="M556 180L533 143L464 241Z" fill="#091a26" stroke="#091a26"></path><path d="M569 116L556 180L567 184Z" fill="#0b77ab" stroke="#0b77ab"></path><path d="M533 143L457 139L439 167Z" fill="#0c2434" stroke="#0c2434"></path><path d="M392 181L394 185L439 167Z" fill="#0c2434" stroke="#0c2434"></path><path d="M439 167L394 185L464 241Z" fill="#0e6a99" stroke="#0e6a99"></path><path d="M394 185L368 255L464 241Z" fill="#0f3a54" stroke="#0f3a54"></path><path d="M642 336L635 307L599 312Z" fill="#0b77ab" stroke="#0b77ab"></path><path d="M599 312L657 276L575 207Z" fill="#000e18" stroke="#000e18"></path><path d="M382 120L392 181L439 167Z" fill="#0c2434" stroke="#0c2434"></path><path d="M394 185L321 196L368 255Z" fill="#104664" stroke="#104664"></path><path d="M533 143L491 125L457 139Z" fill="#0c2434" stroke="#0c2434"></path><path d="M368 255L366 302L464 241Z" fill="#000e18" stroke="#000e18"></path><path d="M642 336L643 306L635 307Z" fill="#0c2434" stroke="#0c2434"></path><path d="M635 307L657 276L599 312Z" fill="#0f5e87" stroke="#0f5e87"></path><path d="M630 178L624 178L588 200Z" fill="#0784be" stroke="#0784be"></path><path d="M588 200L624 178L567 184Z" fill="#0f5e87" stroke="#0f5e87"></path><path d="M533 143L569 116L491 125Z" fill="#105275" stroke="#105275"></path><path d="M543 417L603 377L504 333Z" fill="#0e2f44" stroke="#0e2f44"></path><path d="M504 333L603 377L599 312Z" fill="#0784be" stroke="#0784be"></path><path d="M657 276L630 178L588 200Z" fill="#0f3a54" stroke="#0f3a54"></path><path d="M624 178L569 116L567 184Z" fill="#105275" stroke="#105275"></path><path d="M643 306L657 276L635 307Z" fill="#105275" stroke="#105275"></path><path d="M603 377L642 336L599 312Z" fill="#0b77ab" stroke="#0b77ab"></path><path d="M643 306L692 273L657 276Z" fill="#000e18" stroke="#000e18"></path><path d="M366 302L383 362L427 347Z" fill="#0e6a99" stroke="#0e6a99"></path><path d="M462 418L543 417L504 333Z" fill="#091a26" stroke="#091a26"></path><path d="M462 418L504 333L427 347Z" fill="#000e18" stroke="#000e18"></path><path d="M425 430L462 418L427 347Z" fill="#0f3a54" stroke="#0f3a54"></path><path d="M640 169L569 116L624 178Z" fill="#0b77ab" stroke="#0b77ab"></path><path d="M694 197L640 169L630 178Z" fill="#091a26" stroke="#091a26"></path><path d="M630 178L640 169L624 178Z" fill="#0c2434" stroke="#0c2434"></path><path d="M603 377L654 343L642 336Z" fill="#104664" stroke="#104664"></path><path d="M642 336L654 343L643 306Z" fill="#104664" stroke="#104664"></path><path d="M366 302L347 338L383 362Z" fill="#000e18" stroke="#000e18"></path><path d="M383 362L425 430L427 347Z" fill="#105275" stroke="#105275"></path><path d="M312 349L347 338L280 310Z" fill="#091a26" stroke="#091a26"></path><path d="M491 125L430 102L457 139Z" fill="#0b77ab" stroke="#0b77ab"></path><path d="M457 139L430 102L439 167Z" fill="#104664" stroke="#104664"></path><path d="M545 33L430 102L491 125Z" fill="#000e18" stroke="#000e18"></path><path d="M354 430L425 430L383 362Z" fill="#104664" stroke="#104664"></path><path d="M462 418L452 455L543 417Z" fill="#0b77ab" stroke="#0b77ab"></path><path d="M654 343L692 273L643 306Z" fill="#0e2f44" stroke="#0e2f44"></path><path d="M657 276L699 225L630 178Z" fill="#0e6a99" stroke="#0e6a99"></path><path d="M430 102L382 120L439 167Z" fill="#0f5e87" stroke="#0f5e87"></path><path d="M392 181L321 196L394 185Z" fill="#105275" stroke="#105275"></path><path d="M280 310L347 338L366 302Z" fill="#0e6a99" stroke="#0e6a99"></path><path d="M603 377L673 360L654 343Z" fill="#104664" stroke="#104664"></path><path d="M654 343L728 290L692 273Z" fill="#0e6a99" stroke="#0e6a99"></path><path d="M595 448L673 360L603 377Z" fill="#0f3a54" stroke="#0f3a54"></path><path d="M382 120L321 196L392 181Z" fill="#0784be" stroke="#0784be"></path><path d="M425 430L452 455L462 418Z" fill="#0c2434" stroke="#0c2434"></path><path d="M692 273L699 225L657 276Z" fill="#0c2434" stroke="#0c2434"></path><path d="M699 225L694 197L630 178Z" fill="#0c2434" stroke="#0c2434"></path><path d="M640 169L674 105L569 116Z" fill="#0b77ab" stroke="#0b77ab"></path><path d="M575 540L595 448L543 417Z" fill="#0b77ab" stroke="#0b77ab"></path><path d="M543 417L595 448L603 377Z" fill="#091a26" stroke="#091a26"></path><path d="M280 310L366 302L368 255Z" fill="#0b77ab" stroke="#0b77ab"></path><path d="M347 338L312 349L383 362Z" fill="#0784be" stroke="#0784be"></path><path d="M425 430L423 540L452 455Z" fill="#0c2434" stroke="#0c2434"></path><path d="M317 104L301 183L321 196Z" fill="#000e18" stroke="#000e18"></path><path d="M258 238L280 310L368 255Z" fill="#0e2f44" stroke="#0e2f44"></path><path d="M312 349L354 430L383 362Z" fill="#0e6a99" stroke="#0e6a99"></path><path d="M673 360L728 290L654 343Z" fill="#091a26" stroke="#091a26"></path><path d="M692 273L728 290L699 225Z" fill="#0e6a99" stroke="#0e6a99"></path><path d="M699 225L768 171L694 197Z" fill="#0e2f44" stroke="#0e2f44"></path><path d="M430 102L362 88L382 120Z" fill="#104664" stroke="#104664"></path><path d="M382 120L317 104L321 196Z" fill="#0f5e87" stroke="#0f5e87"></path><path d="M394 0L362 88L430 102Z" fill="#0f3a54" stroke="#0f3a54"></path><path d="M258 238L368 255L321 196Z" fill="#000e18" stroke="#000e18"></path><path d="M312 349L304 430L354 430Z" fill="#104664" stroke="#104664"></path><path d="M749 116L674 105L694 197Z" fill="#0c2434" stroke="#0c2434"></path><path d="M694 197L674 105L640 169Z" fill="#0b77ab" stroke="#0b77ab"></path><path d="M569 116L545 33L491 125Z" fill="#0c2434" stroke="#0c2434"></path><path d="M598 0L545 33L569 116Z" fill="#0784be" stroke="#0784be"></path><path d="M362 88L317 104L382 120Z" fill="#0e2f44" stroke="#0e2f44"></path><path d="M204 184L258 238L301 183Z" fill="#0b77ab" stroke="#0b77ab"></path><path d="M301 183L258 238L321 196Z" fill="#091a26" stroke="#091a26"></path><path d="M673 360L744 333L728 290Z" fill="#000e18" stroke="#000e18"></path><path d="M728 290L763 298L699 225Z" fill="#000e18" stroke="#000e18"></path><path d="M745 376L744 333L673 360Z" fill="#0c2434" stroke="#0c2434"></path><path d="M208 277L254 333L280 310Z" fill="#0b77ab" stroke="#0b77ab"></path><path d="M280 310L254 333L312 349Z" fill="#000e18" stroke="#000e18"></path><path d="M281 399L304 430L312 349Z" fill="#000e18" stroke="#000e18"></path><path d="M423 540L476 526L452 455Z" fill="#105275" stroke="#105275"></path><path d="M254 333L281 399L312 349Z" fill="#0f3a54" stroke="#0f3a54"></path><path d="M744 333L763 298L728 290Z" fill="#0f5e87" stroke="#0f5e87"></path><path d="M423 540L425 430L357 540Z" fill="#0e6a99" stroke="#0e6a99"></path><path d="M452 455L476 526L543 417Z" fill="#0f5e87" stroke="#0f5e87"></path><path d="M687 476L673 360L595 448Z" fill="#0784be" stroke="#0784be"></path><path d="M714 475L745 376L673 360Z" fill="#0b77ab" stroke="#0b77ab"></path><path d="M744 333L786 310L763 298Z" fill="#0e2f44" stroke="#0e2f44"></path><path d="M541 0L524 0L545 33Z" fill="#091a26" stroke="#091a26"></path><path d="M545 33L524 0L430 102Z" fill="#000e18" stroke="#000e18"></path><path d="M362 88L300 54L317 104Z" fill="#105275" stroke="#105275"></path><path d="M598 0L551 2L545 33Z" fill="#091a26" stroke="#091a26"></path><path d="M551 2L541 0L545 33Z" fill="#0e6a99" stroke="#0e6a99"></path><path d="M622 540L687 476L595 448Z" fill="#105275" stroke="#105275"></path><path d="M789 180L768 171L699 225Z" fill="#091a26" stroke="#091a26"></path><path d="M643 15L598 0L569 116Z" fill="#0e2f44" stroke="#0e2f44"></path><path d="M643 15L569 116L674 105Z" fill="#0f3a54" stroke="#0f3a54"></path><path d="M551 2L598 0L541 0Z" fill="#0e2f44" stroke="#0e2f44"></path><path d="M281 399L255 398L304 430Z" fill="#0e6a99" stroke="#0e6a99"></path><path d="M254 333L255 398L281 399Z" fill="#105275" stroke="#105275"></path><path d="M598 0L419 -5L541 0Z" fill="#0f5e87" stroke="#0f5e87"></path><path d="M541 0L419 -5L524 0Z" fill="#104664" stroke="#104664"></path><path d="M524 0L419 -5L430 102Z" fill="#0c2434" stroke="#0c2434"></path><path d="M476 526L575 540L543 417Z" fill="#0b77ab" stroke="#0b77ab"></path><path d="M798 385L786 310L744 333Z" fill="#091a26" stroke="#091a26"></path><path d="M763 298L789 180L699 225Z" fill="#0b77ab" stroke="#0b77ab"></path><path d="M798 385L744 333L745 376Z" fill="#104664" stroke="#104664"></path><path d="M721 78L643 15L674 105Z" fill="#0f5e87" stroke="#0f5e87"></path><path d="M749 116L721 78L674 105Z" fill="#0f3a54" stroke="#0f3a54"></path><path d="M768 171L749 116L694 197Z" fill="#0f3a54" stroke="#0f3a54"></path><path d="M305 501L354 430L304 430Z" fill="#105275" stroke="#105275"></path><path d="M357 540L425 430L354 430Z" fill="#0c2434" stroke="#0c2434"></path><path d="M476 526L423 540L575 540Z" fill="#0f3a54" stroke="#0f3a54"></path><path d="M419 -5L394 0L430 102Z" fill="#000e18" stroke="#000e18"></path><path d="M375 0L300 54L362 88Z" fill="#091a26" stroke="#091a26"></path><path d="M317 104L213 151L301 183Z" fill="#0784be" stroke="#0784be"></path><path d="M419 -5L375 0L394 0Z" fill="#0b77ab" stroke="#0b77ab"></path><path d="M394 0L375 0L362 88Z" fill="#0b77ab" stroke="#0b77ab"></path><path d="M258 238L208 277L280 310Z" fill="#0e2f44" stroke="#0e2f44"></path><path d="M254 333L193 332L255 398Z" fill="#105275" stroke="#105275"></path><path d="M186 254L208 277L258 238Z" fill="#0e2f44" stroke="#0e2f44"></path><path d="M681 540L714 475L687 476Z" fill="#0f5e87" stroke="#0f5e87"></path><path d="M687 476L714 475L673 360Z" fill="#105275" stroke="#105275"></path><path d="M834 224L789 180L763 298Z" fill="#0b77ab" stroke="#0b77ab"></path><path d="M768 171L789 180L749 116Z" fill="#000e18" stroke="#000e18"></path><path d="M714 475L760 418L745 376Z" fill="#105275" stroke="#105275"></path><path d="M575 540L622 540L595 448Z" fill="#0f5e87" stroke="#0f5e87"></path><path d="M287 0L267 68L300 54Z" fill="#104664" stroke="#104664"></path><path d="M300 54L267 68L317 104Z" fill="#104664" stroke="#104664"></path><path d="M255 398L305 501L304 430Z" fill="#0c2434" stroke="#0c2434"></path><path d="M305 501L341 529L354 430Z" fill="#0b77ab" stroke="#0b77ab"></path><path d="M213 151L204 184L301 183Z" fill="#104664" stroke="#104664"></path><path d="M341 529L357 540L354 430Z" fill="#0784be" stroke="#0784be"></path><path d="M267 68L213 151L317 104Z" fill="#0f5e87" stroke="#0f5e87"></path><path d="M305 501L338 532L341 529Z" fill="#091a26" stroke="#091a26"></path><path d="M341 529L338 532L357 540Z" fill="#104664" stroke="#104664"></path><path d="M782 439L798 385L760 418Z" fill="#0e2f44" stroke="#0e2f44"></path><path d="M760 418L798 385L745 376Z" fill="#0b77ab" stroke="#0b77ab"></path><path d="M786 310L834 224L763 298Z" fill="#104664" stroke="#104664"></path><path d="M186 254L193 332L208 277Z" fill="#091a26" stroke="#091a26"></path><path d="M208 277L193 332L254 333Z" fill="#0e2f44" stroke="#0e2f44"></path><path d="M231 540L255 540L305 501Z" fill="#104664" stroke="#104664"></path><path d="M204 184L186 254L258 238Z" fill="#104664" stroke="#104664"></path><path d="M622 540L681 540L687 476Z" fill="#0f5e87" stroke="#0f5e87"></path><path d="M714 475L782 439L760 418Z" fill="#104664" stroke="#104664"></path><path d="M774 540L782 439L714 475Z" fill="#000e18" stroke="#000e18"></path><path d="M852 270L834 224L786 310Z" fill="#0784be" stroke="#0784be"></path><path d="M769 11L721 78L749 116Z" fill="#0c2434" stroke="#0c2434"></path><path d="M755 0L721 0L769 11Z" fill="#0c2434" stroke="#0c2434"></path><path d="M305 501L318 540L338 532Z" fill="#0e2f44" stroke="#0e2f44"></path><path d="M338 532L318 540L357 540Z" fill="#0e6a99" stroke="#0e6a99"></path><path d="M255 540L318 540L305 501Z" fill="#0b77ab" stroke="#0b77ab"></path><path d="M834 369L786 310L798 385Z" fill="#104664" stroke="#104664"></path><path d="M834 369L841 302L786 310Z" fill="#000e18" stroke="#000e18"></path><path d="M721 0L721 78L769 11Z" fill="#105275" stroke="#105275"></path><path d="M721 78L721 0L643 15Z" fill="#000e18" stroke="#000e18"></path><path d="M643 15L721 0L598 0Z" fill="#000e18" stroke="#000e18"></path><path d="M598 0L721 0L419 -5Z" fill="#0784be" stroke="#0784be"></path><path d="M375 0L287 0L300 54Z" fill="#105275" stroke="#105275"></path><path d="M267 68L200 58L213 151Z" fill="#0f5e87" stroke="#0f5e87"></path><path d="M419 -5L287 0L375 0Z" fill="#0e6a99" stroke="#0e6a99"></path><path d="M887 438L834 369L798 385Z" fill="#104664" stroke="#104664"></path><path d="M929 242L960 293L960 290Z" fill="#0e2f44" stroke="#0e2f44"></path><path d="M841 302L852 270L786 310Z" fill="#104664" stroke="#104664"></path><path d="M681 540L724 541L714 475Z" fill="#104664" stroke="#104664"></path><path d="M782 439L887 438L798 385Z" fill="#0784be" stroke="#0784be"></path><path d="M622 540L724 541L681 540Z" fill="#0b77ab" stroke="#0b77ab"></path><path d="M575 540L724 541L622 540Z" fill="#0b77ab" stroke="#0b77ab"></path><path d="M423 540L724 541L575 540Z" fill="#091a26" stroke="#091a26"></path><path d="M357 540L724 541L423 540Z" fill="#0f3a54" stroke="#0f3a54"></path><path d="M318 540L724 541L357 540Z" fill="#000e18" stroke="#000e18"></path><path d="M151 210L186 254L204 184Z" fill="#0f5e87" stroke="#0f5e87"></path><path d="M151 210L151 234L186 254Z" fill="#0e6a99" stroke="#0e6a99"></path><path d="M85 283L156 357L193 332Z" fill="#0f3a54" stroke="#0f3a54"></path><path d="M151 210L204 184L120 111Z" fill="#104664" stroke="#104664"></path><path d="M852 270L860 244L834 224Z" fill="#0784be" stroke="#0784be"></path><path d="M769 11L749 116L823 20Z" fill="#0e2f44" stroke="#0e2f44"></path><path d="M929 242L860 244L852 270Z" fill="#0e2f44" stroke="#0e2f44"></path><path d="M120 111L204 184L213 151Z" fill="#0b77ab" stroke="#0b77ab"></path><path d="M724 541L733 540L714 475Z" fill="#0784be" stroke="#0784be"></path><path d="M85 283L193 332L186 254Z" fill="#104664" stroke="#104664"></path><path d="M193 332L172 416L255 398Z" fill="#105275" stroke="#105275"></path><path d="M724 541L739 540L733 540Z" fill="#0e6a99" stroke="#0e6a99"></path><path d="M733 540L739 540L714 475Z" fill="#0b77ab" stroke="#0b77ab"></path><path d="M749 116L789 180L869 108Z" fill="#0e2f44" stroke="#0e2f44"></path><path d="M721 0L755 0L419 -5Z" fill="#0f5e87" stroke="#0f5e87"></path><path d="M156 357L172 416L193 332Z" fill="#0f3a54" stroke="#0f3a54"></path><path d="M869 108L789 180L890 154Z" fill="#0f3a54" stroke="#0f3a54"></path><path d="M240 0L200 58L267 68Z" fill="#105275" stroke="#105275"></path><path d="M231 540L305 501L255 398Z" fill="#091a26" stroke="#091a26"></path><path d="M318 540L255 540L724 541Z" fill="#0b77ab" stroke="#0b77ab"></path><path d="M419 -5L240 0L287 0Z" fill="#000e18" stroke="#000e18"></path><path d="M287 0L240 0L267 68Z" fill="#104664" stroke="#104664"></path><path d="M724 541L774 540L739 540Z" fill="#000e18" stroke="#000e18"></path><path d="M739 540L774 540L714 475Z" fill="#0f3a54" stroke="#0f3a54"></path><path d="M172 416L231 540L255 398Z" fill="#104664" stroke="#104664"></path><path d="M255 540L231 540L724 541Z" fill="#0e2f44" stroke="#0e2f44"></path><path d="M85 283L120 364L156 357Z" fill="#0c2434" stroke="#0c2434"></path><path d="M156 357L120 364L172 416Z" fill="#0784be" stroke="#0784be"></path><path d="M172 416L198 540L231 540Z" fill="#0f5e87" stroke="#0f5e87"></path><path d="M85 283L186 254L151 234Z" fill="#0f3a54" stroke="#0f3a54"></path><path d="M890 154L789 180L834 224Z" fill="#105275" stroke="#105275"></path><path d="M930 217L890 154L860 244Z" fill="#105275" stroke="#105275"></path><path d="M860 244L890 154L834 224Z" fill="#091a26" stroke="#091a26"></path><path d="M869 108L823 20L749 116Z" fill="#091a26" stroke="#091a26"></path><path d="M769 11L818 0L755 0Z" fill="#105275" stroke="#105275"></path><path d="M857 0L818 0L823 20Z" fill="#0e2f44" stroke="#0e2f44"></path><path d="M823 20L818 0L769 11Z" fill="#0c2434" stroke="#0c2434"></path><path d="M755 0L818 0L419 -5Z" fill="#104664" stroke="#104664"></path><path d="M149 540L198 540L115 492Z" fill="#0b77ab" stroke="#0b77ab"></path><path d="M231 540L198 540L724 541Z" fill="#104664" stroke="#104664"></path><path d="M148 0L120 111L200 58Z" fill="#104664" stroke="#104664"></path><path d="M200 58L120 111L213 151Z" fill="#104664" stroke="#104664"></path><path d="M151 210L92 213L151 234Z" fill="#105275" stroke="#105275"></path><path d="M67 180L92 213L151 210Z" fill="#000e18" stroke="#000e18"></path><path d="M92 213L85 283L151 234Z" fill="#091a26" stroke="#091a26"></path><path d="M866 540L887 438L782 439Z" fill="#0e6a99" stroke="#0e6a99"></path><path d="M929 242L852 270L960 293Z" fill="#0b77ab" stroke="#0b77ab"></path><path d="M852 270L960 299L960 293Z" fill="#0c2434" stroke="#0c2434"></path><path d="M929 242L930 217L860 244Z" fill="#000e18" stroke="#000e18"></path><path d="M885 0L857 0L869 108Z" fill="#0f5e87" stroke="#0f5e87"></path><path d="M869 108L857 0L823 20Z" fill="#091a26" stroke="#091a26"></path><path d="M73 324L101 410L120 364Z" fill="#091a26" stroke="#091a26"></path><path d="M120 364L101 410L172 416Z" fill="#0f3a54" stroke="#0f3a54"></path><path d="M67 180L75 224L92 213Z" fill="#0784be" stroke="#0784be"></path><path d="M92 213L75 224L85 283Z" fill="#104664" stroke="#104664"></path><path d="M85 283L73 324L120 364Z" fill="#091a26" stroke="#091a26"></path><path d="M0 243L73 324L85 283Z" fill="#104664" stroke="#104664"></path><path d="M960 67L869 108L890 154Z" fill="#0e2f44" stroke="#0e2f44"></path><path d="M818 0L857 0L419 -5Z" fill="#0c2434" stroke="#0c2434"></path><path d="M240 0L148 0L200 58Z" fill="#0c2434" stroke="#0c2434"></path><path d="M120 111L67 180L151 210Z" fill="#0e2f44" stroke="#0e2f44"></path><path d="M419 -5L148 0L240 0Z" fill="#0b77ab" stroke="#0b77ab"></path><path d="M61 177L67 180L65 153Z" fill="#0f5e87" stroke="#0f5e87"></path><path d="M75 224L0 243L85 283Z" fill="#0f3a54" stroke="#0f3a54"></path><path d="M115 492L198 540L172 416Z" fill="#105275" stroke="#105275"></path><path d="M198 540L149 540L724 541Z" fill="#0e2f44" stroke="#0e2f44"></path><path d="M101 410L110 482L172 416Z" fill="#104664" stroke="#104664"></path><path d="M93 535L110 482L41 540Z" fill="#0e6a99" stroke="#0e6a99"></path><path d="M110 482L115 492L172 416Z" fill="#0c2434" stroke="#0c2434"></path><path d="M65 153L67 180L120 111Z" fill="#000e18" stroke="#000e18"></path><path d="M67 180L61 177L75 224Z" fill="#091a26" stroke="#091a26"></path><path d="M21 102L65 153L120 111Z" fill="#0e2f44" stroke="#0e2f44"></path><path d="M774 540L866 540L782 439Z" fill="#0784be" stroke="#0784be"></path><path d="M852 270L841 302L960 299Z" fill="#000e18" stroke="#000e18"></path><path d="M724 541L866 540L774 540Z" fill="#0e6a99" stroke="#0e6a99"></path><path d="M841 302L960 356L960 299Z" fill="#0c2434" stroke="#0c2434"></path><path d="M929 242L960 196L930 217Z" fill="#0f3a54" stroke="#0f3a54"></path><path d="M930 217L960 196L890 154Z" fill="#091a26" stroke="#091a26"></path><path d="M866 540L870 538L887 438Z" fill="#0b77ab" stroke="#0b77ab"></path><path d="M841 302L834 369L960 356Z" fill="#091a26" stroke="#091a26"></path><path d="M960 356L834 369L887 438Z" fill="#091a26" stroke="#091a26"></path><path d="M960 290L960 196L929 242Z" fill="#0e6a99" stroke="#0e6a99"></path><path d="M960 67L885 0L869 108Z" fill="#105275" stroke="#105275"></path><path d="M857 0L885 0L419 -5Z" fill="#0e6a99" stroke="#0e6a99"></path><path d="M963 406L960 356L887 438Z" fill="#0f5e87" stroke="#0f5e87"></path><path d="M960 196L960 155L890 154Z" fill="#0e2f44" stroke="#0e2f44"></path><path d="M960 530L963 406L887 438Z" fill="#0e6a99" stroke="#0e6a99"></path><path d="M960 356L963 406L960 299Z" fill="#104664" stroke="#104664"></path><path d="M960 299L963 406L960 293Z" fill="#0e2f44" stroke="#0e2f44"></path><path d="M960 293L963 406L960 290Z" fill="#0f3a54" stroke="#0f3a54"></path><path d="M960 290L963 406L960 196Z" fill="#000e18" stroke="#000e18"></path><path d="M960 196L963 406L960 155Z" fill="#091a26" stroke="#091a26"></path><path d="M0 444L110 482L101 410Z" fill="#0784be" stroke="#0784be"></path><path d="M110 482L93 535L115 492Z" fill="#0f5e87" stroke="#0f5e87"></path><path d="M115 492L93 535L149 540Z" fill="#104664" stroke="#104664"></path><path d="M960 155L960 67L890 154Z" fill="#000e18" stroke="#000e18"></path><path d="M963 406L960 67L960 155Z" fill="#0f3a54" stroke="#0f3a54"></path><path d="M0 216L61 177L0 154Z" fill="#0b77ab" stroke="#0b77ab"></path><path d="M0 216L75 224L61 177Z" fill="#0f5e87" stroke="#0f5e87"></path><path d="M0 216L0 243L75 224Z" fill="#0f3a54" stroke="#0f3a54"></path><path d="M73 324L6 400L101 410Z" fill="#104664" stroke="#104664"></path><path d="M0 154L61 177L65 153Z" fill="#0e6a99" stroke="#0e6a99"></path><path d="M23 70L21 102L120 111Z" fill="#0f3a54" stroke="#0f3a54"></path><path d="M0 243L0 373L73 324Z" fill="#105275" stroke="#105275"></path><path d="M0 373L6 400L73 324Z" fill="#0f3a54" stroke="#0f3a54"></path><path d="M21 102L0 154L65 153Z" fill="#104664" stroke="#104664"></path><path d="M419 -5L61 0L148 0Z" fill="#091a26" stroke="#091a26"></path><path d="M148 0L61 0L120 111Z" fill="#0e6a99" stroke="#0e6a99"></path><path d="M21 102L0 71L0 154Z" fill="#104664" stroke="#104664"></path><path d="M61 0L23 70L120 111Z" fill="#091a26" stroke="#091a26"></path><path d="M963 406L960 0L960 67Z" fill="#000e18" stroke="#000e18"></path><path d="M960 67L960 0L885 0Z" fill="#0f3a54" stroke="#0f3a54"></path><path d="M885 0L960 0L419 -5Z" fill="#0c2434" stroke="#0c2434"></path><path d="M960 540L960 530L870 538Z" fill="#0e2f44" stroke="#0e2f44"></path><path d="M870 538L960 530L887 438Z" fill="#0c2434" stroke="#0c2434"></path><path d="M0 373L0 419L6 400Z" fill="#0c2434" stroke="#0c2434"></path><path d="M6 400L0 419L101 410Z" fill="#0f5e87" stroke="#0f5e87"></path><path d="M724 541L960 540L866 540Z" fill="#0c2434" stroke="#0c2434"></path><path d="M866 540L960 540L870 538Z" fill="#091a26" stroke="#091a26"></path><path d="M960 530L960 540L963 406Z" fill="#000e18" stroke="#000e18"></path><path d="M0 419L0 444L101 410Z" fill="#0f5e87" stroke="#0f5e87"></path><path d="M0 469L41 540L110 482Z" fill="#0f5e87" stroke="#0f5e87"></path><path d="M93 535L41 540L149 540Z" fill="#105275" stroke="#105275"></path><path d="M149 540L41 540L724 541Z" fill="#0784be" stroke="#0784be"></path><path d="M0 44L0 71L23 70Z" fill="#000e18" stroke="#000e18"></path><path d="M23 70L0 71L21 102Z" fill="#0e6a99" stroke="#0e6a99"></path><path d="M0 444L0 469L110 482Z" fill="#0f5e87" stroke="#0f5e87"></path><path d="M61 0L0 44L23 70Z" fill="#000e18" stroke="#000e18"></path><path d="M419 -5L11 0L61 0Z" fill="#105275" stroke="#105275"></path><path d="M61 0L11 0L0 44Z" fill="#104664" stroke="#104664"></path><path d="M419 -5L0 0L11 0Z" fill="#091a26" stroke="#091a26"></path><path d="M11 0L0 0L0 44Z" fill="#105275" stroke="#105275"></path><path d="M0 469L0 540L41 540Z" fill="#0e2f44" stroke="#0e2f44"></path><path d="M41 540L0 540L724 541Z" fill="#0f3a54" stroke="#0f3a54"></path></g></svg>